<mxfile host="app.diagrams.net" modified="2024-03-26T13:21:54.421Z" agent="Mozilla/5.0 (Macintosh; Intel Mac OS X 10_15_7) AppleWebKit/537.36 (KHTML, like Gecko) Chrome/123.0.0.0 Safari/537.36" etag="WRl5YFPe5XXJ_gcNNIJu" version="24.1.0" type="github">
  <diagram name="Page-1" id="hdjArQT4N3EYjZPsATcF">
    <mxGraphModel dx="791" dy="428" grid="1" gridSize="10" guides="1" tooltips="1" connect="1" arrows="1" fold="1" page="1" pageScale="1" pageWidth="850" pageHeight="1100" math="0" shadow="0">
      <root>
        <mxCell id="0" />
        <mxCell id="1" parent="0" />
        <mxCell id="8JDR-m6vEa2aa0U4zZIv-1" value="" style="rounded=1;whiteSpace=wrap;html=1;" vertex="1" parent="1">
          <mxGeometry x="120" y="160" width="600" height="600" as="geometry" />
        </mxCell>
        <mxCell id="8JDR-m6vEa2aa0U4zZIv-4" value="" style="group" vertex="1" connectable="0" parent="1">
          <mxGeometry x="345" y="160" width="160" height="64" as="geometry" />
        </mxCell>
        <mxCell id="8JDR-m6vEa2aa0U4zZIv-2" value="&lt;b&gt;Domain Driven Design&lt;/b&gt;" style="text;html=1;align=center;verticalAlign=middle;whiteSpace=wrap;rounded=0;" vertex="1" parent="8JDR-m6vEa2aa0U4zZIv-4">
          <mxGeometry width="160" height="40" as="geometry" />
        </mxCell>
        <mxCell id="8JDR-m6vEa2aa0U4zZIv-3" value="&lt;font style=&quot;font-size: 10px;&quot;&gt;Context Mapping&lt;/font&gt;" style="text;html=1;align=center;verticalAlign=middle;whiteSpace=wrap;rounded=0;" vertex="1" parent="8JDR-m6vEa2aa0U4zZIv-4">
          <mxGeometry y="23" width="160" height="41" as="geometry" />
        </mxCell>
      </root>
    </mxGraphModel>
  </diagram>
</mxfile>
